<svg width="378" height="300" viewBox="0 0 378 300" fill="none" xmlns="http://www.w3.org/2000/svg">
<g clip-path="url(#clip0_88_381)">
<path d="M92.4164 299.419H62.7431C61.7404 299.418 60.7791 299.019 60.0701 298.311C59.3611 297.603 58.9623 296.643 58.9612 295.641V234.041C58.9623 233.04 59.3611 232.08 60.0701 231.372C60.7791 230.663 61.7404 230.265 62.7431 230.264H92.4164C93.419 230.265 94.3803 230.663 95.0893 231.372C95.7983 232.08 96.1971 233.04 96.1982 234.041V295.641C96.1971 296.643 95.7983 297.603 95.0893 298.311C94.3803 299.019 93.419 299.418 92.4164 299.419Z" fill="#5F3DC4"/>
<path d="M162.818 300H133.144C131.988 299.999 130.878 299.539 130.06 298.722C129.242 297.905 128.782 296.797 128.781 295.641V175.928C128.782 174.772 129.242 173.664 130.06 172.847C130.878 172.03 131.988 171.571 133.144 171.569H162.818C163.975 171.571 165.084 172.03 165.902 172.847C166.72 173.664 167.18 174.772 167.181 175.928V295.641C167.18 296.797 166.72 297.905 165.902 298.722C165.084 299.539 163.975 299.999 162.818 300ZM133.144 172.732C132.296 172.733 131.483 173.07 130.883 173.669C130.283 174.268 129.945 175.08 129.944 175.928V295.641C129.945 296.489 130.283 297.301 130.883 297.9C131.483 298.5 132.296 298.837 133.144 298.838H162.818C163.666 298.837 164.48 298.5 165.079 297.9C165.679 297.301 166.017 296.489 166.018 295.641V175.928C166.017 175.08 165.679 174.268 165.079 173.669C164.48 173.07 163.666 172.733 162.818 172.732H133.144Z" fill="#3F3D56"/>
<path d="M233.219 300H203.546C202.389 299.999 201.28 299.539 200.462 298.722C199.643 297.905 199.183 296.797 199.182 295.641V99.7992C199.183 98.6436 199.643 97.5357 200.462 96.7186C201.28 95.9015 202.389 95.4419 203.546 95.4407H233.219C234.376 95.4419 235.485 95.9015 236.303 96.7186C237.121 97.5357 237.581 98.6436 237.583 99.7992V295.641C237.581 296.797 237.121 297.905 236.303 298.722C235.485 299.539 234.376 299.999 233.219 300ZM203.546 96.6029C202.697 96.6039 201.884 96.9409 201.284 97.5401C200.684 98.1393 200.347 98.9518 200.346 99.7992V295.641C200.347 296.489 200.684 297.301 201.284 297.9C201.884 298.5 202.697 298.837 203.546 298.838H233.219C234.067 298.837 234.881 298.5 235.481 297.9C236.081 297.301 236.418 296.489 236.419 295.641V99.7992C236.418 98.9518 236.081 98.1393 235.481 97.5401C234.881 96.9409 234.067 96.6039 233.219 96.6029H203.546Z" fill="#3F3D56"/>
<path d="M304.277 299.709H274.604C273.601 299.708 272.64 299.31 271.931 298.602C271.222 297.894 270.823 296.933 270.822 295.932V19.8932C270.823 18.8917 271.222 17.9316 271.931 17.2234C272.64 16.5153 273.601 16.117 274.604 16.1158H304.277C305.28 16.117 306.241 16.5153 306.95 17.2234C307.659 17.9316 308.058 18.8917 308.059 19.8932V295.932C308.058 296.933 307.659 297.894 306.95 298.602C306.241 299.31 305.28 299.708 304.277 299.709Z" fill="#5F3DC4"/>
<path d="M119.728 129.22C119.836 128.373 119.756 127.512 119.495 126.698C119.233 125.885 118.797 125.139 118.215 124.512C117.634 123.885 116.922 123.394 116.13 123.072C115.337 122.75 114.484 122.605 113.63 122.648L103.287 103.698L100.959 111.834L108.046 129.201C108.213 130.63 108.899 131.948 109.974 132.905C111.049 133.862 112.439 134.391 113.879 134.394C115.319 134.396 116.71 133.871 117.788 132.917C118.866 131.964 119.556 130.648 119.728 129.22Z" fill="#A0616A"/>
<path d="M40.0392 204.044L45.7999 208.245L64.7646 188.049L56.2617 181.849L40.0392 204.044Z" fill="#A0616A"/>
<path d="M53.0052 221.69L34.8987 208.487L40.006 201.499L51.1168 209.601C52.9722 210.954 54.2135 212.988 54.5676 215.255C54.9218 217.522 54.3598 219.837 53.0052 221.69Z" fill="#2F2E41"/>
<path d="M70.5183 226.28L77.6515 226.28L81.0447 198.799L70.5171 198.8L70.5183 226.28Z" fill="#A0616A"/>
<path d="M91.4086 232.895L68.9903 232.896L68.9899 224.245L82.7466 224.244C85.0438 224.244 87.2469 225.155 88.8714 226.778C90.4958 228.4 91.4085 230.601 91.4086 232.895Z" fill="#2F2E41"/>
<path d="M91.9412 119.098C91.9412 119.098 95.4321 152.804 86.7047 176.049L80.3046 220.215H69.2498L70.4135 167.913L66.3407 121.423C66.3407 121.423 74.4863 100.502 91.9412 119.098Z" fill="#2F2E41"/>
<path d="M54.1224 121.422L65.759 161.521L43.0676 197.551L54.4133 207.14L80.3047 166.751L72.7409 117.354L54.1224 121.422Z" fill="#2F2E41"/>
<path d="M83.7979 31.5057C91.6902 31.5057 98.0882 25.1153 98.0882 17.2324C98.0882 9.34953 91.6902 2.95918 83.7979 2.95918C75.9056 2.95918 69.5076 9.34953 69.5076 17.2324C69.5076 25.1153 75.9056 31.5057 83.7979 31.5057Z" fill="#A0616A"/>
<path d="M71.868 36.8675C71.868 36.8675 80.5955 31.0561 90.4866 43.8411L93.1048 124.328C93.1048 124.328 85.541 113.868 69.8316 123.747C54.1222 133.626 50.6313 122.585 50.6313 122.585C50.6313 122.585 39.5765 39.4826 71.868 36.8675Z" fill="#CCCCCC"/>
<path d="M89.7826 43.6382C92.2926 43.7737 94.6639 44.8315 96.4401 46.6081C98.2163 48.3847 99.272 50.7546 99.4042 53.2619L101.25 88.2979L113.469 121.423L106.487 127.234L83.7955 87.7167L79.1497 55.2353C78.9368 53.7465 79.057 52.2291 79.5016 50.7923C79.9463 49.3555 80.7043 48.0351 81.7212 46.926C82.738 45.8169 83.9884 44.9468 85.3824 44.3783C86.7763 43.8097 88.2791 43.557 89.7826 43.6382Z" fill="#CCCCCC"/>
<path d="M73.2976 27.9388C75.6338 30.4244 79.9724 29.0901 80.2768 25.6944C80.3007 25.4308 80.299 25.1655 80.2717 24.9022C80.1145 23.3981 79.2445 22.0325 79.4529 20.4443C79.5001 20.0491 79.6475 19.6724 79.8812 19.35C81.7429 16.8601 86.113 20.4637 87.8699 18.2096C88.9473 16.8275 87.6809 14.6514 88.5076 13.1066C89.5988 11.0677 92.8307 12.0735 94.8574 10.9569C97.1125 9.7146 96.9776 6.25889 95.4932 4.15696C93.6829 1.59357 90.5089 0.225723 87.3744 0.0285735C84.2399 -0.168576 81.127 0.677752 78.2007 1.81681C74.8758 3.111 71.5787 4.89962 69.5326 7.81971C67.0443 11.3709 66.8049 16.145 68.0493 20.2974C68.8063 22.8234 71.3898 25.9091 73.2976 27.9388Z" fill="#2F2E41"/>
</g>
<defs>
<clipPath id="clip0_88_381">
<rect width="378" height="300" fill="white"/>
</clipPath>
</defs>
</svg>
