<svg width="378" height="228" viewBox="0 0 378 228" fill="none" xmlns="http://www.w3.org/2000/svg">
<path d="M375.133 11.8786H372.675V12.2883H375.133V11.8786Z" fill="#E6E6E6"/>
<path d="M367.71 12.2883H362.745V11.8786H367.71V12.2883ZM357.78 12.2883H352.815V11.8786H357.78V12.2883ZM347.85 12.2883H342.885V11.8786H347.852L347.85 12.2883ZM337.921 12.2883H332.955V11.8786H337.92L337.921 12.2883ZM327.991 12.2883H323.026V11.8786H327.991L327.991 12.2883ZM318.061 12.2883H313.096V11.8786H318.06L318.061 12.2883ZM308.132 12.2883H303.164V11.8786H308.129L308.132 12.2883ZM298.202 12.2883H293.236V11.8786H298.201L298.202 12.2883ZM288.272 12.2883H283.306V11.8786H288.271L288.272 12.2883ZM278.342 12.2883H273.376V11.8786H278.342L278.342 12.2883ZM268.413 12.2883H263.446V11.8786H268.411L268.413 12.2883ZM258.483 12.2883H253.516V11.8786H258.481L258.483 12.2883ZM248.553 12.2883H243.586V11.8786H248.551L248.553 12.2883ZM238.623 12.2883H233.657V11.8786H238.621L238.623 12.2883ZM228.694 12.2883H223.726V11.8786H228.691L228.694 12.2883ZM218.764 12.2883H213.797V11.8786H218.761L218.764 12.2883Z" fill="#E6E6E6"/>
<path d="M226.024 22.0525H223.567V22.4621H226.024V22.0525Z" fill="#E6E6E6"/>
<path d="M294.44 49.9723H291.982V50.3819H294.44V49.9723Z" fill="#E6E6E6"/>
<path d="M287.09 50.3819H282.199V49.9723H287.09V50.3819ZM277.308 50.3819H272.417V49.9723H277.308V50.3819ZM267.526 50.3819H262.634V49.9723H267.528L267.526 50.3819ZM257.744 50.3819H252.852V49.9723H257.743L257.744 50.3819ZM247.961 50.3819H243.069V49.9723H247.961L247.961 50.3819ZM238.179 50.3819H233.287V49.9723H238.178L238.179 50.3819ZM228.396 50.3819H223.505V49.9723H228.396L228.396 50.3819ZM218.614 50.3819H213.722V49.9723H218.613L218.614 50.3819Z" fill="#E6E6E6"/>
<path d="M226.024 60.1461H223.567V60.5557H226.024V60.1461Z" fill="#E6E6E6"/>
<path d="M246.516 67.9951H244.058V68.4047H246.516V67.9951Z" fill="#E6E6E6"/>
<path d="M239.025 68.4047H233.993V67.9951H239.025V68.4047ZM228.96 68.4047H223.928V67.9951H228.961L228.96 68.4047ZM218.896 68.4047H213.864V67.9951H218.896V68.4047Z" fill="#E6E6E6"/>
<path d="M226.024 78.1689H223.567V78.5785H226.024V78.1689Z" fill="#E6E6E6"/>
<path d="M375.202 16.3885V86.538C375.198 90.0674 373.794 93.4511 371.298 95.9467C368.803 98.4424 365.419 99.8462 361.89 99.8503H219.346C217.477 99.8515 215.629 99.4581 213.923 98.6957C212.217 97.9334 210.691 96.8194 209.446 95.4266V94.7999C210.645 96.2425 212.145 97.4054 213.841 98.2071C215.537 99.0088 217.388 99.4298 219.264 99.4407L243.918 74.7864C244.571 74.1335 245.457 73.7668 246.38 73.7668C247.303 73.7668 248.189 74.1335 248.842 74.7864L261.945 87.8857L292.662 57.1732C293.315 56.5204 294.2 56.1536 295.123 56.1536C296.047 56.1536 296.932 56.5204 297.585 57.1732L315.604 75.1878L374.387 16.4089L374.792 16.3966L374.981 16.3925L375.202 16.3885Z" fill="#5F3DC4"/>
<path d="M362.025 99.9445H219.481C215.951 99.9405 212.568 98.5367 210.072 96.041C207.576 93.5454 206.172 90.1617 206.168 86.6323V13.3123C206.172 9.78288 207.576 6.39918 210.072 3.90351C212.568 1.40784 215.951 0.00401125 219.481 0H362.025C365.554 0.00401125 368.938 1.40784 371.433 3.90351C373.929 6.39918 375.333 9.78288 375.337 13.3123V86.6323C375.333 90.1617 373.929 93.5454 371.433 96.041C368.938 98.5367 365.554 99.9405 362.025 99.9445ZM219.481 0.409609C216.06 0.413512 212.78 1.77415 210.361 4.19303C207.943 6.6119 206.582 9.89148 206.578 13.3123V86.6323C206.582 90.0531 207.943 93.3326 210.361 95.7515C212.78 98.1704 216.06 99.531 219.481 99.5349H362.025C365.445 99.531 368.725 98.1704 371.144 95.7515C373.563 93.3326 374.923 90.0531 374.927 86.6323V13.3123C374.923 9.89148 373.563 6.6119 371.144 4.19303C368.725 1.77415 365.445 0.413512 362.025 0.409609H219.481Z" fill="#3F3D56"/>
<path d="M219.626 99.8847L219.336 99.5951L244.053 74.8765C244.707 74.2244 245.592 73.8582 246.515 73.8582C247.439 73.8582 248.324 74.2244 248.977 74.8765L262.081 87.9799L292.797 57.2633C293.451 56.6114 294.336 56.2452 295.259 56.2452C296.182 56.2452 297.067 56.6114 297.721 57.2633L315.739 75.282L374.988 16.0337L375.277 16.3233L315.739 75.8624L297.429 57.5529C296.853 56.9768 296.072 56.6532 295.257 56.6532C294.442 56.6532 293.661 56.9768 293.085 57.5529L262.077 88.5603L248.683 75.1661C248.107 74.5909 247.326 74.2679 246.511 74.2679C245.697 74.2679 244.916 74.5909 244.339 75.1661L219.626 99.8847Z" fill="#3F3D56"/>
<path d="M246.516 71.0671C248.099 71.0671 249.383 69.7834 249.383 68.1999C249.383 66.6163 248.099 65.3326 246.516 65.3326C244.932 65.3326 243.648 66.6163 243.648 68.1999C243.648 69.7834 244.932 71.0671 246.516 71.0671Z" fill="#3F3D56"/>
<path d="M294.44 53.0443C296.024 53.0443 297.307 51.7606 297.307 50.1771C297.307 48.5935 296.024 47.3098 294.44 47.3098C292.856 47.3098 291.573 48.5935 291.573 50.1771C291.573 51.7606 292.856 53.0443 294.44 53.0443Z" fill="#3F3D56"/>
<path d="M375.133 14.9507C376.716 14.9507 378 13.667 378 12.0835C378 10.4999 376.716 9.2162 375.133 9.2162C373.549 9.2162 372.266 10.4999 372.266 12.0835C372.266 13.667 373.549 14.9507 375.133 14.9507Z" fill="#3F3D56"/>
<path d="M145.082 54.5537C145.082 54.5537 145.369 62.0332 143.644 63.7593C141.919 65.4854 152.274 71.5267 152.274 71.5267L158.316 62.0332C158.316 62.0332 156.014 58.0059 156.588 54.5537H145.082Z" fill="#FFB9B9"/>
<path d="M126.527 206.591V213.783L135.445 214.356L134.872 206.589L126.527 206.591Z" fill="#FFB9B9"/>
<path d="M175.433 206.591V213.783L166.515 214.356L167.088 206.589L175.433 206.591Z" fill="#FFB9B9"/>
<path d="M131.131 126.905C131.131 126.905 126.528 143.59 129.404 156.823C129.404 156.823 129.404 162.577 130.555 163.728C131.706 164.879 131.994 164.878 131.129 165.454C130.263 166.029 128.539 167.467 129.402 168.33C130.265 169.193 130.553 170.344 129.976 170.632C129.399 170.92 128.825 171.495 129.402 172.646C129.98 173.796 126.526 204.578 126.526 204.578C126.526 204.578 123.074 208.318 126.526 208.606C129.978 208.893 135.731 210.332 136.307 208.032C136.882 205.733 141.485 173.223 141.485 173.223C141.485 173.223 142.059 172.36 143.211 170.922C144.364 169.483 143.785 168.908 143.785 168.62C143.785 168.332 149.829 141 149.829 141C149.829 141 158.747 172.07 159.61 172.645C160.473 173.22 160.761 173.218 160.761 174.083C160.761 174.948 160.187 175.522 160.761 176.385C161.075 176.848 161.363 177.328 161.624 177.823C161.624 177.823 163.062 210.043 165.939 210.043C168.816 210.043 177.446 209.47 176.583 206.879C175.72 204.287 174.57 204.867 174.57 204.867C174.57 204.867 176.583 178.4 171.693 170.633V164.303C171.693 163.729 171.98 163.44 171.693 162.864C171.406 162.289 172.556 128.055 167.09 126.04C161.624 124.025 131.131 126.905 131.131 126.905Z" fill="#D6D6E3"/>
<path d="M131.993 211.77C131.993 211.77 130.555 209.468 128.541 209.468C126.528 209.468 125.089 211.77 125.089 211.77L119.911 218.962C119.911 218.962 112.431 223.564 115.308 226.154C118.185 228.743 125.952 227.304 125.952 227.304C125.952 227.304 132.281 222.701 133.144 222.413C134.365 221.871 135.523 221.195 136.596 220.4C136.883 220.113 136.023 209.756 135.158 210.475C134.293 211.194 133.719 213.496 131.993 211.77Z" fill="#090814"/>
<path d="M169.967 211.77C169.967 211.77 171.406 209.468 173.419 209.468C175.433 209.468 176.871 211.77 176.871 211.77L182.05 218.962C182.05 218.962 189.529 223.564 186.653 226.154C183.776 228.743 176.008 227.304 176.008 227.304C176.008 227.304 169.68 222.701 168.817 222.413C167.596 221.871 166.438 221.195 165.364 220.4C165.078 220.113 165.938 209.756 166.803 210.475C167.668 211.194 168.241 213.496 169.967 211.77Z" fill="#090814"/>
<path d="M149.26 58.316C154.98 58.316 159.617 53.6792 159.617 47.9595C159.617 42.2397 154.98 37.6029 149.26 37.6029C143.54 37.6029 138.904 42.2397 138.904 47.9595C138.904 53.6792 143.54 58.316 149.26 58.316Z" fill="#FFB9B9"/>
<path d="M147.384 64.6223C147.384 64.6223 145.448 64.7288 144.546 61.7989L129.26 72.9648L135.589 89.9378C135.589 89.9378 136.452 99.1433 135.589 101.735C134.726 104.326 134.151 106.337 134.151 107.488C134.151 108.638 128.109 127.913 130.411 128.776C132.712 129.639 167.808 133.091 168.672 127.338C169.536 121.584 165.797 83.6089 165.797 83.6089L171.839 68.9376L157.149 59.3286C157.149 59.3286 155.727 65.1974 147.384 64.6223Z" fill="#5F3DC4"/>
<path d="M128.255 91.2326L127.105 100.151C127.105 100.151 122.502 109.644 123.653 122.302L123.366 130.644C123.366 130.644 120.489 145.028 126.243 145.604C131.996 146.179 128.256 129.781 128.256 129.781L131.421 122.014L134.66 104.735L136.311 92.6707L128.255 91.2326Z" fill="#FFB9B9"/>
<path d="M133.432 72.5331L129.26 72.9644C129.26 72.9644 126.527 93.2458 127.39 93.2458C128.253 93.2458 138.035 95.5474 138.322 94.9719C138.61 94.3964 133.432 72.5331 133.432 72.5331Z" fill="#5F3DC4"/>
<path d="M142.127 37.7528L140.26 37.0741C140.26 37.0741 144.163 33.1705 149.594 33.5105L148.067 31.9831C148.067 31.9831 151.801 30.6252 155.194 34.1892C156.978 36.0628 159.044 38.2653 160.33 40.7458H162.329L161.495 42.4146L164.415 44.0833L161.418 43.7835C161.701 45.2243 161.604 46.7143 161.134 48.1057L160.455 49.9727C160.455 49.9727 157.741 44.5413 157.741 43.8626V45.5596C157.741 45.5596 155.874 44.0321 155.874 43.0139L154.856 44.2017L154.347 42.3347L148.067 44.2017L149.085 42.6743L145.182 43.1834L146.709 41.3164C146.709 41.3164 142.297 43.5226 142.127 45.3896C141.957 47.2566 139.751 49.6327 139.751 49.6327L138.733 47.9357C138.733 47.9357 137.205 40.2986 142.127 37.7528Z" fill="#090814"/>
<path d="M169.32 185.303C179.925 185.303 188.522 173.067 188.522 157.974C188.522 142.88 179.925 130.644 169.32 130.644C158.714 130.644 150.117 142.88 150.117 157.974C150.117 173.067 158.714 185.303 169.32 185.303Z" fill="#3F3D56"/>
<path opacity="0.1" d="M169.32 185.303C179.925 185.303 188.522 173.067 188.522 157.974C188.522 142.88 179.925 130.644 169.32 130.644C158.714 130.644 150.117 142.88 150.117 157.974C150.117 173.067 158.714 185.303 169.32 185.303Z" fill="black"/>
<path d="M171.909 185.303C182.514 185.303 191.111 173.067 191.111 157.974C191.111 142.88 182.514 130.644 171.909 130.644C161.303 130.644 152.706 142.88 152.706 157.974C152.706 173.067 161.303 185.303 171.909 185.303Z" fill="#090814"/>
<path d="M171.766 169.263V166.512C170.448 166.5 169.167 166.082 168.097 165.314L168.67 163.489C169.668 164.237 170.877 164.647 172.124 164.661C173.826 164.661 174.977 163.544 174.977 161.991C174.977 160.493 174.042 159.566 172.267 158.749C169.821 157.659 168.31 156.406 168.31 154.036C168.273 152.988 168.621 151.963 169.288 151.155C169.955 150.347 170.896 149.811 171.932 149.65V146.898H173.422V149.541C174.53 149.556 175.612 149.887 176.539 150.494L175.939 152.293C175.05 151.684 173.996 151.36 172.918 151.366C171.071 151.366 170.376 152.619 170.376 153.709C170.376 155.125 171.263 155.834 173.349 156.815C175.819 157.959 177.067 159.376 177.067 161.8C177.1 162.899 176.735 163.973 176.038 164.824C175.342 165.675 174.362 166.246 173.278 166.431V169.263H171.766Z" fill="#5F3DC4"/>
<path d="M176.009 88.0679V99.8647C176.009 99.8647 176.295 114.248 171.406 123.166L168.816 128.918C168.816 128.918 163.638 145.604 160.474 140.425C157.309 135.247 163.926 126.617 163.926 126.617L167.671 104.719L165.364 90.0824L176.009 88.0679Z" fill="#FFB9B9"/>
<path d="M166.227 68.2183L171.839 68.9376C171.839 68.9376 178.597 89.5065 176.873 90.3695C175.149 91.2326 163.929 91.8081 163.929 91.8081L166.227 68.2183Z" fill="#5F3DC4"/>
<path d="M90.571 78.8333H7.73669C5.6985 78.8441 3.73925 78.0459 2.28882 76.6139C0.8384 75.182 0.015267 73.2331 0 71.1949V29.1281C0.0148351 27.0897 0.837778 25.1404 2.28825 23.708C3.73872 22.2757 5.69822 21.4773 7.73669 21.4881H90.571C92.6089 21.4777 94.5677 22.2761 96.0178 23.708C97.4679 25.14 98.2908 27.0886 98.3061 29.1265V71.1933C98.2913 73.2314 97.4685 75.1805 96.0184 76.6128C94.5683 78.0451 92.6092 78.8437 90.571 78.8333ZM7.73669 21.7232C5.76136 21.7129 3.8626 22.4866 2.45698 23.8745C1.05135 25.2624 0.253614 27.1512 0.23878 29.1265V71.1933C0.253614 73.1686 1.05135 75.0573 2.45698 76.4452C3.8626 77.8331 5.76136 78.6068 7.73669 78.5966H90.571C92.5463 78.6068 94.4451 77.8331 95.8507 76.4452C97.2564 75.0573 98.0541 73.1686 98.0689 71.1933V29.1265C98.0541 27.1512 97.2564 25.2624 95.8507 23.8745C94.4451 22.4866 92.5463 21.7129 90.571 21.7232H7.73669Z" fill="#3F3D56"/>
<path d="M63.8996 29.6803H21.3003C19.4905 29.6803 18.0234 31.1474 18.0234 32.9571V34.5956C18.0234 36.4053 19.4905 37.8724 21.3003 37.8724H63.8996C65.7094 37.8724 67.1765 36.4053 67.1765 34.5956V32.9571C67.1765 31.1474 65.7094 29.6803 63.8996 29.6803Z" fill="#E6E6E6"/>
<path d="M10.4865 37.2982C10.4865 37.472 10.4174 37.6387 10.2945 37.7616C10.1716 37.8845 10.0049 37.9535 9.83112 37.9535C9.6573 37.9535 9.4906 37.8845 9.3677 37.7616C9.24479 37.6387 9.17574 37.472 9.17574 37.2982V32.328L7.67411 33.8308C7.61319 33.8917 7.54087 33.9401 7.46128 33.973C7.38169 34.006 7.29639 34.023 7.21024 34.023C7.12409 34.023 7.03878 34.006 6.95918 33.973C6.87959 33.9401 6.80727 33.8917 6.74635 33.8308C6.68544 33.7699 6.63711 33.6976 6.60414 33.618C6.57117 33.5384 6.5542 33.4531 6.5542 33.3669C6.5542 33.2808 6.57117 33.1955 6.60414 33.1159C6.63711 33.0363 6.68544 32.964 6.74635 32.9031L9.36785 30.2816C9.49074 30.1588 9.65738 30.0898 9.83112 30.0898C10.0049 30.0898 10.1715 30.1588 10.2944 30.2816L12.9159 32.9031C12.9768 32.964 13.0251 33.0363 13.0581 33.1159C13.0911 33.1955 13.108 33.2808 13.108 33.3669C13.108 33.4531 13.0911 33.5384 13.0581 33.618C13.0251 33.6976 12.9768 33.7699 12.9159 33.8308C12.855 33.8917 12.7826 33.9401 12.703 33.973C12.6234 34.006 12.5382 34.023 12.452 34.023C12.3658 34.023 12.2805 34.006 12.2009 33.973C12.1214 33.9401 12.049 33.8917 11.9881 33.8308L10.4865 32.328V37.2982Z" fill="#5F3DC4"/>
<path d="M63.8996 29.6803H21.3003C19.4905 29.6803 18.0234 31.1474 18.0234 32.9571V34.5956C18.0234 36.4053 19.4905 37.8724 21.3003 37.8724H63.8996C65.7094 37.8724 67.1765 36.4053 67.1765 34.5956V32.9571C67.1765 31.1474 65.7094 29.6803 63.8996 29.6803Z" fill="#E6E6E6"/>
<path d="M72.092 37.958L75.6556 34.3232L77.281 35.9808L85.7599 34.1233L91.7533 30.5851V37.958H72.092Z" fill="#5F3DC4"/>
<path d="M10.4865 37.2982C10.4865 37.472 10.4174 37.6387 10.2945 37.7616C10.1716 37.8845 10.0049 37.9535 9.83112 37.9535C9.6573 37.9535 9.4906 37.8845 9.3677 37.7616C9.24479 37.6387 9.17574 37.472 9.17574 37.2982V32.328L7.67411 33.8308C7.61319 33.8917 7.54087 33.9401 7.46128 33.973C7.38169 34.006 7.29639 34.023 7.21024 34.023C7.12409 34.023 7.03878 34.006 6.95918 33.973C6.87959 33.9401 6.80727 33.8917 6.74635 33.8308C6.68544 33.7699 6.63711 33.6976 6.60414 33.618C6.57117 33.5384 6.5542 33.4531 6.5542 33.3669C6.5542 33.2808 6.57117 33.1955 6.60414 33.1159C6.63711 33.0363 6.68544 32.964 6.74635 32.9031L9.36785 30.2816C9.49074 30.1588 9.65738 30.0898 9.83112 30.0898C10.0049 30.0898 10.1715 30.1588 10.2944 30.2816L12.9159 32.9031C12.9768 32.964 13.0251 33.0363 13.0581 33.1159C13.0911 33.1955 13.108 33.2808 13.108 33.3669C13.108 33.4531 13.0911 33.5384 13.0581 33.618C13.0251 33.6976 12.9768 33.7699 12.9159 33.8308C12.855 33.8917 12.7826 33.9401 12.703 33.973C12.6234 34.006 12.5382 34.023 12.452 34.023C12.3658 34.023 12.2805 34.006 12.2009 33.973C12.1214 33.9401 12.049 33.8917 11.9881 33.8308L10.4865 32.328V37.2982Z" fill="#5F3DC4"/>
<path d="M63.8996 46.8838H21.3003C19.4905 46.8838 18.0234 48.3509 18.0234 50.1607V51.7991C18.0234 53.6089 19.4905 55.076 21.3003 55.076H63.8996C65.7094 55.076 67.1765 53.6089 67.1765 51.7991V50.1607C67.1765 48.3509 65.7094 46.8838 63.8996 46.8838Z" fill="#E6E6E6"/>
<path d="M10.4865 54.5017C10.4865 54.6755 10.4174 54.8422 10.2945 54.9652C10.1716 55.0881 10.0049 55.1571 9.83112 55.1571C9.6573 55.1571 9.4906 55.0881 9.3677 54.9652C9.24479 54.8422 9.17574 54.6755 9.17574 54.5017V49.5315L7.67411 51.0344C7.61319 51.0953 7.54087 51.1436 7.46128 51.1766C7.38169 51.2096 7.29639 51.2265 7.21024 51.2265C7.12409 51.2265 7.03878 51.2096 6.95918 51.1766C6.87959 51.1436 6.80727 51.0953 6.74635 51.0344C6.68544 50.9735 6.63711 50.9012 6.60414 50.8216C6.57117 50.742 6.5542 50.6567 6.5542 50.5705C6.5542 50.4844 6.57117 50.3991 6.60414 50.3195C6.63711 50.2399 6.68544 50.1676 6.74635 50.1066L9.36785 47.4851C9.49074 47.3623 9.65738 47.2933 9.83112 47.2933C10.0049 47.2933 10.1715 47.3623 10.2944 47.4851L12.9159 50.1066C12.9768 50.1676 13.0251 50.2399 13.0581 50.3195C13.0911 50.3991 13.108 50.4844 13.108 50.5705C13.108 50.6567 13.0911 50.742 13.0581 50.8216C13.0251 50.9012 12.9768 50.9735 12.9159 51.0344C12.855 51.0953 12.7826 51.1436 12.703 51.1766C12.6234 51.2096 12.5382 51.2265 12.452 51.2265C12.3658 51.2265 12.2805 51.2096 12.2009 51.1766C12.1214 51.1436 12.049 51.0953 11.9881 51.0344L10.4865 49.5315V54.5017Z" fill="#5F3DC4"/>
<path d="M63.8996 46.8838H21.3003C19.4905 46.8838 18.0234 48.3509 18.0234 50.1607V51.7991C18.0234 53.6089 19.4905 55.076 21.3003 55.076H63.8996C65.7094 55.076 67.1765 53.6089 67.1765 51.7991V50.1607C67.1765 48.3509 65.7094 46.8838 63.8996 46.8838Z" fill="#E6E6E6"/>
<path d="M10.4865 54.5017C10.4865 54.6755 10.4174 54.8422 10.2945 54.9652C10.1716 55.0881 10.0049 55.1571 9.83112 55.1571C9.6573 55.1571 9.4906 55.0881 9.3677 54.9652C9.24479 54.8422 9.17574 54.6755 9.17574 54.5017V49.5315L7.67411 51.0344C7.61319 51.0953 7.54087 51.1436 7.46128 51.1766C7.38169 51.2096 7.29639 51.2265 7.21024 51.2265C7.12409 51.2265 7.03878 51.2096 6.95918 51.1766C6.87959 51.1436 6.80727 51.0953 6.74635 51.0344C6.68544 50.9735 6.63711 50.9012 6.60414 50.8216C6.57117 50.742 6.5542 50.6567 6.5542 50.5705C6.5542 50.4844 6.57117 50.3991 6.60414 50.3195C6.63711 50.2399 6.68544 50.1676 6.74635 50.1066L9.36785 47.4851C9.49074 47.3623 9.65738 47.2933 9.83112 47.2933C10.0049 47.2933 10.1715 47.3623 10.2944 47.4851L12.9159 50.1066C12.9768 50.1676 13.0251 50.2399 13.0581 50.3195C13.0911 50.3991 13.108 50.4844 13.108 50.5705C13.108 50.6567 13.0911 50.742 13.0581 50.8216C13.0251 50.9012 12.9768 50.9735 12.9159 51.0344C12.855 51.0953 12.7826 51.1436 12.703 51.1766C12.6234 51.2096 12.5382 51.2265 12.452 51.2265C12.3658 51.2265 12.2805 51.2096 12.2009 51.1766C12.1214 51.1436 12.049 51.0953 11.9881 51.0344L10.4865 49.5315V54.5017Z" fill="#5F3DC4"/>
<path d="M63.8996 63.6778H21.3003C19.4905 63.6778 18.0234 65.1449 18.0234 66.9547V68.5931C18.0234 70.4029 19.4905 71.87 21.3003 71.87H63.8996C65.7094 71.87 67.1765 70.4029 67.1765 68.5931V66.9547C67.1765 65.1449 65.7094 63.6778 63.8996 63.6778Z" fill="#E6E6E6"/>
<path d="M10.4865 71.2957C10.4865 71.4695 10.4174 71.6362 10.2945 71.7591C10.1716 71.882 10.0049 71.9511 9.83112 71.9511C9.6573 71.9511 9.4906 71.882 9.3677 71.7591C9.24479 71.6362 9.17574 71.4695 9.17574 71.2957V66.3255L7.67411 67.8284C7.61319 67.8893 7.54087 67.9376 7.46128 67.9706C7.38169 68.0035 7.29639 68.0205 7.21024 68.0205C7.12409 68.0205 7.03878 68.0035 6.95918 67.9706C6.87959 67.9376 6.80727 67.8893 6.74635 67.8284C6.68544 67.7675 6.63711 67.6951 6.60414 67.6155C6.57117 67.5359 6.5542 67.4506 6.5542 67.3645C6.5542 67.2783 6.57117 67.193 6.60414 67.1134C6.63711 67.0338 6.68544 66.9615 6.74635 66.9006L9.36785 64.2791C9.49074 64.1563 9.65738 64.0873 9.83112 64.0873C10.0049 64.0873 10.1715 64.1563 10.2944 64.2791L12.9159 66.9006C12.9768 66.9615 13.0251 67.0338 13.0581 67.1134C13.0911 67.193 13.108 67.2783 13.108 67.3645C13.108 67.4506 13.0911 67.5359 13.0581 67.6155C13.0251 67.6951 12.9768 67.7675 12.9159 67.8284C12.855 67.8893 12.7826 67.9376 12.703 67.9706C12.6234 68.0035 12.5382 68.0205 12.452 68.0205C12.3658 68.0205 12.2805 68.0035 12.2009 67.9706C12.1214 67.9376 12.049 67.8893 11.9881 67.8284L10.4865 66.3255V71.2957Z" fill="#5F3DC4"/>
<path d="M63.8996 63.6778H21.3003C19.4905 63.6778 18.0234 65.1449 18.0234 66.9547V68.5931C18.0234 70.4029 19.4905 71.87 21.3003 71.87H63.8996C65.7094 71.87 67.1765 70.4029 67.1765 68.5931V66.9547C67.1765 65.1449 65.7094 63.6778 63.8996 63.6778Z" fill="#E6E6E6"/>
<path d="M10.4865 71.2957C10.4865 71.4695 10.4174 71.6362 10.2945 71.7591C10.1716 71.882 10.0049 71.9511 9.83112 71.9511C9.6573 71.9511 9.4906 71.882 9.3677 71.7591C9.24479 71.6362 9.17574 71.4695 9.17574 71.2957V66.3255L7.67411 67.8284C7.61319 67.8893 7.54087 67.9376 7.46128 67.9706C7.38169 68.0035 7.29639 68.0205 7.21024 68.0205C7.12409 68.0205 7.03878 68.0035 6.95918 67.9706C6.87959 67.9376 6.80727 67.8893 6.74635 67.8284C6.68544 67.7675 6.63711 67.6951 6.60414 67.6155C6.57117 67.5359 6.5542 67.4506 6.5542 67.3645C6.5542 67.2783 6.57117 67.193 6.60414 67.1134C6.63711 67.0338 6.68544 66.9615 6.74635 66.9006L9.36785 64.2791C9.49074 64.1563 9.65738 64.0873 9.83112 64.0873C10.0049 64.0873 10.1715 64.1563 10.2944 64.2791L12.9159 66.9006C12.9768 66.9615 13.0251 67.0338 13.0581 67.1134C13.0911 67.193 13.108 67.2783 13.108 67.3645C13.108 67.4506 13.0911 67.5359 13.0581 67.6155C13.0251 67.6951 12.9768 67.7675 12.9159 67.8284C12.855 67.8893 12.7826 67.9376 12.703 67.9706C12.6234 68.0035 12.5382 68.0205 12.452 68.0205C12.3658 68.0205 12.2805 68.0035 12.2009 67.9706C12.1214 67.9376 12.049 67.8893 11.9881 67.8284L10.4865 66.3255V71.2957Z" fill="#5F3DC4"/>
<path d="M72.092 55.076L75.6556 51.4411L77.281 53.0988L85.7599 51.2412L91.7533 47.703V55.076H72.092Z" fill="#5F3DC4"/>
<path d="M72.092 71.87L75.6556 68.2351L77.281 69.8928L85.7599 68.0352L91.7533 64.497V71.87H72.092Z" fill="#5F3DC4"/>
</svg>
