<svg width="378" height="232" viewBox="0 0 378 232" fill="none" xmlns="http://www.w3.org/2000/svg">
<path d="M275.087 143.224L275.052 143.221C268.596 142.154 261.424 142.154 253.127 143.223H253.123C252.916 143.225 252.711 143.187 252.519 143.109C252.327 143.032 252.152 142.917 252.004 142.772C251.857 142.626 251.739 142.453 251.659 142.262C251.579 142.071 251.537 141.866 251.536 141.659V134.135C251.536 133.72 251.701 133.322 251.994 133.029C252.287 132.735 252.685 132.57 253.099 132.57C260.406 131.616 267.806 131.616 275.113 132.571H275.116C275.526 132.577 275.917 132.745 276.204 133.038C276.491 133.33 276.652 133.725 276.651 134.135V141.659C276.65 142.074 276.485 142.472 276.192 142.765C275.899 143.059 275.502 143.224 275.087 143.224Z" fill="white"/>
<path d="M275.087 143.224L275.052 143.221C268.596 142.154 261.424 142.154 253.127 143.223H253.123C252.916 143.225 252.711 143.187 252.519 143.109C252.327 143.032 252.152 142.917 252.004 142.772C251.857 142.626 251.739 142.453 251.659 142.262C251.579 142.071 251.537 141.866 251.536 141.659V134.135C251.536 133.72 251.701 133.322 251.994 133.029C252.287 132.735 252.685 132.57 253.099 132.57C260.406 131.616 267.806 131.616 275.113 132.571H275.116C275.526 132.577 275.917 132.745 276.204 133.038C276.491 133.33 276.652 133.725 276.651 134.135V141.659C276.65 142.074 276.485 142.472 276.192 142.765C275.899 143.059 275.502 143.224 275.087 143.224ZM263.814 132.282C260.24 132.275 256.67 132.513 253.128 132.994C252.977 132.991 252.826 133.019 252.685 133.075C252.544 133.131 252.416 133.215 252.307 133.321C252.199 133.427 252.113 133.554 252.053 133.693C251.994 133.833 251.963 133.983 251.961 134.135V141.659C251.962 141.961 252.082 142.25 252.295 142.464C252.508 142.678 252.798 142.798 253.099 142.798C261.404 141.727 268.611 141.727 275.104 142.798C275.402 142.793 275.687 142.671 275.897 142.458C276.107 142.245 276.225 141.958 276.225 141.659V134.135C276.225 133.833 276.105 133.543 275.891 133.33C275.678 133.116 275.389 132.996 275.087 132.996C271.348 132.526 267.583 132.288 263.814 132.282Z" fill="#5F3DC4"/>
<path d="M264.093 140.521C265.739 140.521 267.073 139.185 267.073 137.538C267.073 135.89 265.739 134.554 264.093 134.554C262.448 134.554 261.114 135.89 261.114 137.538C261.114 139.185 262.448 140.521 264.093 140.521Z" fill="#5F3DC4"/>
<path d="M256.431 135.979H253.877C253.708 135.979 253.545 135.912 253.426 135.792C253.306 135.672 253.239 135.509 253.239 135.34V134.487C253.239 134.318 253.306 134.155 253.426 134.036C253.545 133.916 253.708 133.848 253.877 133.848H256.431C256.6 133.848 256.763 133.916 256.882 134.036C257.002 134.155 257.069 134.318 257.07 134.487V135.34C257.069 135.509 257.002 135.672 256.882 135.792C256.763 135.912 256.6 135.979 256.431 135.979Z" fill="#5F3DC4"/>
<path d="M274.309 141.946H271.755C271.586 141.946 271.424 141.878 271.304 141.758C271.184 141.638 271.117 141.476 271.117 141.306V140.454C271.117 140.285 271.184 140.122 271.304 140.002C271.424 139.882 271.586 139.815 271.755 139.815H274.309C274.479 139.815 274.641 139.882 274.761 140.002C274.88 140.122 274.948 140.285 274.948 140.454V141.306C274.948 141.476 274.88 141.638 274.761 141.758C274.641 141.878 274.479 141.946 274.309 141.946Z" fill="#5F3DC4"/>
<path d="M271.453 140.113L271.422 140.096C265.889 136.599 259.281 133.807 251.222 131.561L251.219 131.559C251.027 131.481 250.853 131.365 250.706 131.219C250.559 131.073 250.443 130.899 250.363 130.708C250.284 130.517 250.243 130.311 250.243 130.104C250.243 129.897 250.284 129.692 250.364 129.5L253.286 122.569C253.448 122.187 253.754 121.884 254.138 121.728C254.522 121.572 254.953 121.574 255.335 121.735C262.437 123.702 269.254 126.583 275.615 130.308L275.618 130.309C275.993 130.475 276.288 130.781 276.439 131.163C276.59 131.544 276.585 131.97 276.424 132.348L273.502 139.279C273.34 139.661 273.034 139.964 272.65 140.12C272.265 140.276 271.835 140.274 271.453 140.113Z" fill="white"/>
<path d="M271.453 140.113L271.422 140.096C265.889 136.599 259.281 133.807 251.222 131.561L251.219 131.559C251.027 131.481 250.853 131.365 250.706 131.219C250.559 131.073 250.443 130.899 250.363 130.708C250.284 130.517 250.243 130.311 250.243 130.104C250.243 129.897 250.284 129.692 250.364 129.5L253.286 122.569C253.448 122.187 253.754 121.884 254.138 121.728C254.522 121.572 254.953 121.574 255.335 121.735C262.437 123.702 269.254 126.583 275.615 130.308L275.618 130.309C275.993 130.475 276.288 130.781 276.439 131.163C276.59 131.544 276.585 131.97 276.424 132.348L273.502 139.279C273.34 139.661 273.034 139.964 272.65 140.12C272.265 140.276 271.835 140.274 271.453 140.113ZM265.318 125.642C262.028 124.245 258.646 123.074 255.197 122.137C255.058 122.076 254.908 122.043 254.757 122.04C254.605 122.037 254.454 122.064 254.313 122.119C254.172 122.175 254.043 122.258 253.934 122.363C253.825 122.469 253.738 122.595 253.678 122.735L250.756 129.666C250.639 129.945 250.637 130.258 250.751 130.538C250.864 130.818 251.084 131.041 251.362 131.159C259.429 133.406 266.068 136.212 271.634 139.726C271.911 139.838 272.221 139.837 272.497 139.722C272.773 139.607 272.993 139.389 273.11 139.113L276.032 132.182C276.149 131.903 276.151 131.59 276.037 131.31C275.924 131.03 275.704 130.807 275.426 130.689C272.163 128.801 268.788 127.115 265.318 125.642Z" fill="#5F3DC4"/>
<path d="M263.533 133.576C265.179 133.576 266.513 132.241 266.513 130.593C266.513 128.945 265.179 127.61 263.533 127.61C261.888 127.61 260.554 128.945 260.554 130.593C260.554 132.241 261.888 133.576 263.533 133.576Z" fill="#5F3DC4"/>
<path d="M257.08 126.174L254.727 125.179C254.571 125.113 254.448 124.988 254.384 124.831C254.32 124.674 254.321 124.498 254.387 124.342L254.718 123.556C254.784 123.4 254.909 123.277 255.066 123.213C255.223 123.149 255.398 123.15 255.554 123.216L257.907 124.211C258.063 124.277 258.187 124.402 258.25 124.559C258.314 124.716 258.313 124.892 258.247 125.048L257.916 125.833C257.85 125.99 257.725 126.113 257.568 126.177C257.412 126.241 257.236 126.24 257.08 126.174Z" fill="#5F3DC4"/>
<path d="M271.233 138.632L268.88 137.637C268.724 137.571 268.601 137.446 268.537 137.289C268.474 137.132 268.475 136.956 268.54 136.8L268.871 136.015C268.937 135.858 269.063 135.735 269.219 135.671C269.376 135.607 269.552 135.608 269.708 135.674L272.061 136.669C272.217 136.735 272.34 136.86 272.404 137.017C272.468 137.174 272.467 137.35 272.401 137.506L272.07 138.292C272.004 138.448 271.879 138.571 271.722 138.635C271.565 138.699 271.389 138.698 271.233 138.632Z" fill="#5F3DC4"/>
<path d="M277.317 135.994C277.853 135.671 278.312 135.234 278.661 134.714C279.01 134.194 279.242 133.604 279.338 132.985C279.435 132.366 279.395 131.733 279.222 131.131C279.048 130.529 278.744 129.973 278.332 129.501L285.87 116.273L277.982 116.783L272.033 129.267C271.288 130.012 270.841 131.005 270.778 132.058C270.715 133.111 271.039 134.151 271.691 134.98C272.342 135.809 273.274 136.37 274.311 136.557C275.348 136.744 276.418 136.543 277.317 135.994Z" fill="#FFB6B6"/>
<path d="M335.346 226.173H330.127L327.644 206.019L335.346 206.019L335.346 226.173Z" fill="#FFB6B6"/>
<path d="M336.676 231.238L319.849 231.237V231.024C319.849 229.285 320.539 227.617 321.768 226.387C322.996 225.157 324.662 224.467 326.399 224.466H326.399L336.677 224.467L336.676 231.238Z" fill="#2F2E41"/>
<path d="M299.589 226.173H294.37L291.887 206.019L299.59 206.019L299.589 226.173Z" fill="#FFB6B6"/>
<path d="M300.92 231.238L284.092 231.237V231.024C284.093 229.285 284.783 227.617 286.011 226.387C287.239 225.157 288.905 224.467 290.642 224.466H290.642L300.92 224.467L300.92 231.238Z" fill="#2F2E41"/>
<path d="M286.169 116.841C286.169 116.841 284.734 137.308 287.561 147.615C290.388 157.922 290.893 220.255 290.893 220.255H300.369L308.583 135.407L327.518 220.554L336.544 219.933L331.594 119.598L286.169 116.841Z" fill="#2F2E41"/>
<path d="M327.678 47.8506L320.433 42.5577L308.294 45.2042L305.008 53.0215L299.346 55.8322C297.484 56.7564 295.875 58.1193 294.655 59.8039C293.436 61.4885 292.643 63.4444 292.345 65.5035L284.256 121.43L331.594 119.598L337.325 53.7335C337.384 53.0454 337.306 52.3524 337.093 51.6953C336.881 51.0383 336.539 50.4305 336.088 49.9081C335.637 49.3857 335.086 48.9592 334.467 48.6538C333.848 48.3485 333.174 48.1705 332.486 48.1304L327.678 47.8506Z" fill="#E4E4E4"/>
<path d="M296.351 60.2007L291.979 66.1018L272.936 124.253L281.862 127.832L296.155 100.734L296.351 60.2007Z" fill="#E4E4E4"/>
<path d="M312.003 39.1381C320.005 39.1381 326.492 32.6434 326.492 24.6317C326.492 16.6201 320.005 10.1254 312.003 10.1254C304.002 10.1254 297.515 16.6201 297.515 24.6317C297.515 32.6434 304.002 39.1381 312.003 39.1381Z" fill="#2F2E41"/>
<path d="M312.199 39.7944C318.039 39.7944 322.772 35.0551 322.772 29.2087C322.772 23.3624 318.039 18.623 312.199 18.623C306.36 18.623 301.626 23.3624 301.626 29.2087C301.626 35.0551 306.36 39.7944 312.199 39.7944Z" fill="#FFB9B9"/>
<path d="M320.227 27.8365C313.495 25.4053 311.217 23.9117 303.78 27.8365L301.039 16.8587H322.968L320.227 27.8365Z" fill="#2F2E41"/>
<path d="M310.829 18.427C315.37 18.427 319.052 14.7408 319.052 10.1937C319.052 5.64652 315.37 1.96033 310.829 1.96033C306.287 1.96033 302.605 5.64652 302.605 10.1937C302.605 14.7408 306.287 18.427 310.829 18.427Z" fill="#2F2E41"/>
<path d="M301.039 8.23334C301.04 6.11891 301.854 4.08605 303.312 2.55666C304.771 1.02727 306.761 0.118797 308.871 0.0197891C308.74 0.0136093 308.611 0 308.479 0C306.298 0 304.207 0.867439 302.664 2.41149C301.122 3.95554 300.256 6.04971 300.256 8.23333C300.256 10.4169 301.122 12.5111 302.664 14.0552C304.207 15.5992 306.298 16.4667 308.479 16.4667C308.611 16.4667 308.74 16.4531 308.871 16.4469C306.761 16.3479 304.771 15.4394 303.312 13.91C301.854 12.3806 301.04 10.3478 301.039 8.23334Z" fill="#2F2E41"/>
<path opacity="0.1" d="M331.213 63.5497L328.263 92.9931L317.845 113.55L331.213 63.5497Z" fill="black"/>
<path d="M19.3683 154.169H16.8142V156.3H19.3683V154.169Z" fill="#F0F0F0"/>
<path d="M260.952 156.3H255.919V154.169H260.952V156.3ZM250.886 156.3H245.853V154.169H250.886V156.3ZM240.82 156.3H235.787V154.169H240.82V156.3ZM230.754 156.3H225.721V154.169H230.754V156.3ZM220.688 156.3H215.655V154.169H220.688V156.3ZM210.622 156.3H205.589V154.169H210.622L210.622 156.3ZM200.556 156.3H195.523V154.169H200.556V156.3ZM190.49 156.3H185.457V154.169H190.49V156.3ZM180.424 156.3H175.391V154.169H180.424V156.3ZM170.358 156.3H165.325V154.169H170.358L170.358 156.3ZM160.292 156.3H155.259V154.169H160.292L160.292 156.3ZM150.226 156.3H145.193V154.169H150.226L150.226 156.3ZM140.16 156.3H135.127V154.169H140.16L140.16 156.3ZM130.094 156.3H125.061V154.169H130.094L130.094 156.3ZM120.028 156.3H114.995V154.169H120.028L120.028 156.3ZM109.962 156.3H104.929V154.169H109.962L109.962 156.3ZM99.8962 156.3H94.8632V154.169H99.8963L99.8962 156.3ZM89.8302 156.3H84.7972V154.169H89.8303L89.8302 156.3ZM79.7641 156.3H74.7313V154.169H79.7642L79.7641 156.3ZM69.6981 156.3H64.6654V154.169H69.6982L69.6981 156.3ZM59.6322 156.3H54.5994V154.169H59.6323L59.6322 156.3ZM49.5662 156.3H44.5333V154.169H49.5664L49.5662 156.3ZM39.5003 156.3H34.4673V154.169H39.5004L39.5003 156.3ZM29.4343 156.3H24.4014V154.169H29.4344L29.4343 156.3Z" fill="#E4E4E4"/>
<path d="M19.3683 100.043H16.8142V102.174H19.3683V100.043Z" fill="#F0F0F0"/>
<path d="M260.952 102.174H255.919V100.043H260.952V102.174ZM250.886 102.174H245.853V100.043H250.886V102.174ZM240.82 102.174H235.787V100.043H240.82V102.174ZM230.754 102.174H225.721V100.043H230.754V102.174ZM220.688 102.174H215.655V100.043H220.688V102.174ZM210.622 102.174H205.589V100.043H210.622L210.622 102.174ZM200.556 102.174H195.523V100.043H200.556V102.174ZM190.49 102.174H185.457V100.043H190.49V102.174ZM180.424 102.174H175.391V100.043H180.424V102.174ZM170.358 102.174H165.325V100.043H170.358L170.358 102.174ZM160.292 102.174H155.259V100.043H160.292L160.292 102.174ZM150.226 102.174H145.193V100.043H150.226L150.226 102.174ZM140.16 102.174H135.127V100.043H140.16L140.16 102.174ZM130.094 102.174H125.061V100.043H130.094L130.094 102.174ZM120.028 102.174H114.995V100.043H120.028L120.028 102.174ZM109.962 102.174H104.929V100.043H109.962L109.962 102.174ZM99.8962 102.174H94.8632V100.043H99.8963L99.8962 102.174ZM89.8302 102.174H84.7972V100.043H89.8303L89.8302 102.174ZM79.7641 102.174H74.7313V100.043H79.7642L79.7641 102.174ZM69.6981 102.174H64.6654V100.043H69.6982L69.6981 102.174ZM59.6322 102.174H54.5994V100.043H59.6323L59.6322 102.174ZM49.5662 102.174H44.5333V100.043H49.5664L49.5662 102.174ZM39.5003 102.174H34.4673V100.043H39.5004L39.5003 102.174ZM29.4343 102.174H24.4014V100.043H29.4344L29.4343 102.174Z" fill="#E4E4E4"/>
<path d="M19.3683 45.9164H16.8142V48.0474H19.3683V45.9164Z" fill="#F0F0F0"/>
<path d="M260.952 48.0474H255.919V45.9164H260.952V48.0474ZM250.886 48.0474H245.853V45.9164H250.886V48.0474ZM240.82 48.0474H235.787V45.9164H240.82V48.0474ZM230.754 48.0474H225.721V45.9164H230.754V48.0474ZM220.688 48.0474H215.655V45.9164H220.688V48.0474ZM210.622 48.0474H205.589V45.9164H210.622L210.622 48.0474ZM200.556 48.0474H195.523V45.9164H200.556V48.0474ZM190.49 48.0474H185.457V45.9164H190.49V48.0474ZM180.424 48.0474H175.391V45.9164H180.424V48.0474ZM170.358 48.0474H165.325V45.9164H170.358L170.358 48.0474ZM160.292 48.0474H155.259V45.9164H160.292L160.292 48.0474ZM150.226 48.0474H145.193V45.9164H150.226L150.226 48.0474ZM140.16 48.0474H135.127V45.9164H140.16L140.16 48.0474ZM130.094 48.0474H125.061V45.9164H130.094L130.094 48.0474ZM120.028 48.0474H114.995V45.9164H120.028L120.028 48.0474ZM109.962 48.0474H104.929V45.9164H109.962L109.962 48.0474ZM99.8962 48.0474H94.8632V45.9164H99.8963L99.8962 48.0474ZM89.8302 48.0474H84.7972V45.9164H89.8303L89.8302 48.0474ZM79.7641 48.0474H74.7313V45.9164H79.7642L79.7641 48.0474ZM69.6981 48.0474H64.6654V45.9164H69.6982L69.6981 48.0474ZM59.6322 48.0474H54.5994V45.9164H59.6323L59.6322 48.0474ZM49.5662 48.0474H44.5333V45.9164H49.5664L49.5662 48.0474ZM39.5003 48.0474H34.4673V45.9164H39.5004L39.5003 48.0474ZM29.4343 48.0474H24.4014V45.9164H29.4344L29.4343 48.0474Z" fill="#E4E4E4"/>
<path d="M100.034 154.808H79.1758V231.523H100.034V154.808Z" fill="#3F3D56"/>
<path d="M103.865 154.808H83.0068V231.523H103.865V154.808Z" fill="#5F3DC4"/>
<path d="M149.412 100.682H128.554V231.523H149.412V100.682Z" fill="#3F3D56"/>
<path d="M153.243 100.682H132.385V231.523H153.243V100.682Z" fill="#5F3DC4"/>
<path d="M198.79 46.5557H177.932V231.523H198.79V46.5557Z" fill="#3F3D56"/>
<path d="M202.622 46.5557H181.764V231.523H202.622V46.5557Z" fill="#5F3DC4"/>
<path d="M17.0271 52.0962C19.8482 52.0962 22.1352 49.8064 22.1352 46.9819C22.1352 44.1573 19.8482 41.8676 17.0271 41.8676C14.2059 41.8676 11.9189 44.1573 11.9189 46.9819C11.9189 49.8064 14.2059 52.0962 17.0271 52.0962Z" fill="#E4E4E4"/>
<path d="M17.0271 106.222C19.8482 106.222 22.1352 103.933 22.1352 101.108C22.1352 98.2836 19.8482 95.9938 17.0271 95.9938C14.2059 95.9938 11.9189 98.2836 11.9189 101.108C11.9189 103.933 14.2059 106.222 17.0271 106.222Z" fill="#E4E4E4"/>
<path d="M17.0271 160.349C19.8482 160.349 22.1352 158.059 22.1352 155.234C22.1352 152.41 19.8482 150.12 17.0271 150.12C14.2059 150.12 11.9189 152.41 11.9189 155.234C11.9189 158.059 14.2059 160.349 17.0271 160.349Z" fill="#E4E4E4"/>
<path d="M318.932 133.848L318.897 133.845C312.441 132.778 305.269 132.778 296.971 133.846H296.968C296.761 133.849 296.555 133.81 296.363 133.733C296.171 133.656 295.996 133.541 295.849 133.395C295.701 133.25 295.584 133.077 295.504 132.886C295.423 132.695 295.381 132.49 295.38 132.283V124.759C295.381 124.344 295.546 123.946 295.839 123.652C296.132 123.359 296.529 123.194 296.944 123.193C304.251 122.239 311.651 122.24 318.958 123.195H318.961C319.371 123.201 319.762 123.369 320.049 123.661C320.336 123.954 320.496 124.348 320.495 124.759V132.283C320.495 132.698 320.33 133.096 320.037 133.389C319.744 133.683 319.346 133.848 318.932 133.848Z" fill="white"/>
<path d="M318.932 133.848L318.897 133.845C312.441 132.778 305.269 132.778 296.971 133.846H296.968C296.761 133.849 296.555 133.81 296.363 133.733C296.171 133.656 295.996 133.541 295.849 133.395C295.701 133.25 295.584 133.077 295.504 132.886C295.423 132.695 295.381 132.49 295.38 132.283V124.759C295.381 124.344 295.546 123.946 295.839 123.652C296.132 123.359 296.529 123.194 296.944 123.193C304.251 122.239 311.651 122.24 318.958 123.195H318.961C319.371 123.201 319.762 123.369 320.049 123.661C320.336 123.954 320.496 124.348 320.495 124.759V132.283C320.495 132.698 320.33 133.096 320.037 133.389C319.744 133.683 319.346 133.848 318.932 133.848ZM307.659 122.906C304.085 122.899 300.515 123.137 296.973 123.617C296.821 123.615 296.671 123.643 296.53 123.699C296.389 123.755 296.261 123.839 296.152 123.945C296.044 124.051 295.957 124.177 295.898 124.317C295.838 124.457 295.807 124.607 295.806 124.759V132.283C295.806 132.585 295.926 132.874 296.14 133.088C296.353 133.301 296.642 133.422 296.944 133.422C305.249 132.351 312.455 132.351 318.948 133.422C319.247 133.417 319.532 133.295 319.742 133.082C319.952 132.869 320.069 132.582 320.07 132.283V124.759C320.069 124.457 319.949 124.167 319.736 123.954C319.523 123.74 319.233 123.62 318.932 123.62C315.192 123.15 311.427 122.911 307.659 122.906Z" fill="#5F3DC4"/>
<path d="M307.938 131.145C309.583 131.145 310.917 129.809 310.917 128.162C310.917 126.514 309.583 125.178 307.938 125.178C306.292 125.178 304.958 126.514 304.958 128.162C304.958 129.809 306.292 131.145 307.938 131.145Z" fill="#5F3DC4"/>
<path d="M300.276 126.603H297.722C297.552 126.603 297.39 126.535 297.27 126.415C297.151 126.296 297.083 126.133 297.083 125.964V125.111C297.083 124.942 297.151 124.779 297.27 124.659C297.39 124.54 297.552 124.472 297.722 124.472H300.276C300.445 124.472 300.607 124.54 300.727 124.659C300.847 124.779 300.914 124.942 300.914 125.111V125.964C300.914 126.133 300.847 126.296 300.727 126.415C300.607 126.535 300.445 126.603 300.276 126.603Z" fill="#5F3DC4"/>
<path d="M318.154 132.57H315.6C315.431 132.569 315.268 132.502 315.149 132.382C315.029 132.262 314.962 132.1 314.961 131.93V131.078C314.962 130.908 315.029 130.746 315.149 130.626C315.268 130.506 315.431 130.439 315.6 130.439H318.154C318.323 130.439 318.486 130.506 318.605 130.626C318.725 130.746 318.792 130.908 318.793 131.078V131.93C318.792 132.1 318.725 132.262 318.605 132.382C318.486 132.502 318.323 132.569 318.154 132.57Z" fill="#5F3DC4"/>
<path d="M314.146 123.986C314.102 123.361 314.196 122.734 314.42 122.149C314.645 121.564 314.994 121.036 315.445 120.601C315.895 120.166 316.436 119.835 317.028 119.632C317.62 119.429 318.249 119.358 318.871 119.425L325.357 105.649L329.471 112.407L322.681 124.453C322.5 125.492 321.944 126.428 321.119 127.085C320.295 127.742 319.258 128.072 318.206 128.015C317.154 127.957 316.16 127.515 315.411 126.773C314.663 126.03 314.213 125.039 314.146 123.986Z" fill="#FFB6B6"/>
<path d="M331.781 51.9267L334.452 48.4388C334.452 48.4388 340.961 47.1116 342.066 56.0622L341.37 95.8536L327.108 118.33L317.845 115.962L329.955 89.2618L331.781 51.9267Z" fill="#E4E4E4"/>
</svg>
